<?xml version="1.0" encoding="utf-8"?>
<!-- Generator: Adobe Illustrator 22.1.0, SVG Export Plug-In . SVG Version: 6.00 Build 0)  -->
<svg version="1.1" id="Layer_1" xmlns="http://www.w3.org/2000/svg" xmlns:xlink="http://www.w3.org/1999/xlink" x="0px" y="0px"
	 viewBox="0 0 1792 1792" style="enable-background:new 0 0 1792 1792;" xml:space="preserve">
<style type="text/css">
	.st0{fill:none;}
	.st1{fill:#4A089F;}
</style>
<g>
	<title>background</title>
	<rect x="-1" y="-1" class="st0" width="582" height="402"/>
</g>
<g>
	<title>Layer 1</title>
	<path class="st1" d="M987,957l13,707c-41.3-7.3-76.3-11-105-11c-27.3,0-62.3,3.7-105,11l13-707c-26.7-46-82.8-144.5-168.5-295.5
		S476.7,385.7,418,287S299,92.7,237,0c38.7,10,74.7,15,108,15c28.7,0,65.7-5,111-15c42,74,86.5,150.5,133.5,229.5
		s102.7,171.2,167,276.5S867,687,895,733c24.7-40.7,61.2-99.8,109.5-177.5c48.3-77.7,87.5-141,117.5-190s65-107.7,105-176
		S1302.7,58,1334,0c36,9.3,71.7,14,107,14c37.3,0,75.3-4.7,114-14c-18.7,26-38.7,55.5-60,88.5s-37.8,59.2-49.5,78.5
		s-30.5,51.3-56.5,96s-42.3,72.7-49,84C1242.7,512.3,1125,715.7,987,957z"/>
</g>
</svg>
