<?xml version="1.0" encoding="utf-8"?>
<!-- Generator: Adobe Illustrator 22.1.0, SVG Export Plug-In . SVG Version: 6.00 Build 0)  -->
<svg version="1.1" id="Layer_1" xmlns="http://www.w3.org/2000/svg" xmlns:xlink="http://www.w3.org/1999/xlink" x="0px" y="0px"
	 viewBox="0 0 128 128" style="enable-background:new 0 0 128 128;" xml:space="preserve">
<style type="text/css">
	.st0{fill:none;}
	.st1{fill:#FBBC05;}
	.st2{fill:#EA4335;}
	.st3{fill:#34A853;}
	.st4{fill:#4285F4;}
</style>
<g>
	<rect class="st0" width="128" height="128"/>
	<path class="st1" d="M27.6,64c0-4.2,0.7-8.1,1.9-11.9L7.9,35.6C3.7,44.2,1.4,53.8,1.4,64c0,10.2,2.4,19.8,6.6,28.3l21.6-16.5
		C28.3,72.1,27.6,68.1,27.6,64"/>
	<path class="st2" d="M65.5,26.2c9,0,17.2,3.2,23.6,8.4L107.7,16C96.3,6.1,81.8,0,65.5,0C40.1,0,18.4,14.5,7.9,35.6l21.6,16.5
		C34.5,37,48.6,26.2,65.5,26.2"/>
	<path class="st3" d="M65.5,101.8c-16.8,0-31-10.9-35.9-25.9L7.9,92.4C18.4,113.5,40.1,128,65.5,128c15.6,0,30.6-5.6,41.8-16
		L86.7,96.2C81,99.9,73.7,101.8,65.5,101.8"/>
	<path class="st4" d="M126.6,64c0-3.8-0.6-7.9-1.5-11.6H65.5v24.7h34.4c-1.7,8.4-6.4,14.9-13.1,19.1l20.5,15.8
		C119,101.1,126.6,84.9,126.6,64"/>
</g>
</svg>
