<?xml version="1.0" encoding="utf-8"?>
<!-- Generator: Adobe Illustrator 22.1.0, SVG Export Plug-In . SVG Version: 6.00 Build 0)  -->
<svg version="1.1" id="Layer_1" xmlns="http://www.w3.org/2000/svg" xmlns:xlink="http://www.w3.org/1999/xlink" x="0px" y="0px"
	 viewBox="0 0 1024 1024" style="enable-background:new 0 0 1024 1024;" xml:space="preserve">
<style type="text/css">
	.st0{fill:none;}
	.st1{fill:#0072C6;}
</style>
<g>
	<title>background</title>
	<rect x="-1" y="-1" class="st0" width="582" height="402"/>
</g>
<g>
	<title>Layer 1</title>
	<path class="st1" d="M644.9,764.4V492.7c19.3,13.3,37.4,25.6,55.4,38c16.2,11.1,18.9,11,35.6-0.1c92.5-61.5,185-122.9,277.5-184.4
		c2.8-1.9,5.7-3.6,9.8-6.1c0.3,4.2,0.8,7.4,0.8,10.5c0,118.2,0.1,236.4,0,354.7c0,39.3-19.9,59.1-59,59.1c-102.8,0-205.6,0-308.4,0
		C652.9,764.4,649.2,764.4,644.9,764.4L644.9,764.4z"/>
	<path class="st1" d="M645.6,216.9h10.5c108.6,0,217.1,0,325.7,0c19.4,0,34.4,11.9,40.5,30.5c2.7,8.2,0,12.2-6.7,16.6
		c-84.1,56.3-168,112.9-252,169.4c-12,8.1-24.1,15.9-35.9,24.3c-6.4,4.6-12.2,4.8-18.8,0.5c-19.2-12.4-38.7-24.2-57.8-36.7
		c-3.2-2.1-6.5-6.9-6.5-10.4c-0.3-63.5-0.2-127-0.1-190.5C644.5,219.8,644.9,219.1,645.6,216.9L645.6,216.9z"/>
	<path class="st1" d="M596.7,1024C397.6,982.3,199.3,940.8,0.3,899.2v-13.1c0-252.5,0.1-505-0.3-757.5c0-10.5,2.8-14.1,13-16
		c159.1-30.4,318.2-61.2,477.3-92C525.4,13.7,560.5,7,596.7,0L596.7,1024L596.7,1024z M438,511c-0.4-41.6-6.1-80-26.7-114.9
		c-16.6-28.1-39-49.4-71.3-58.6c-62.8-17.9-122.8,11.5-152.4,75c-18.9,40.7-23,83.9-19.3,128.1c3.2,38.3,14.3,73.7,39,104
		c49.1,60.2,138.4,60.6,188.2,0.8C428.4,605.8,437.4,558.7,438,511L438,511z"/>
	<path class="st1" d="M232.9,511.9c-0.1-29.7,3.9-58.4,20.7-83.8c15.5-23.5,39-33.1,64.9-26.6c20.1,5,32.3,19.3,40.4,37.2
		c13.8,30.7,16.2,63.3,12.1,95.9c-2.3,18.1-7.5,36.5-14.8,53.2c-9.5,21.6-27.8,34-52.2,34.5c-24.6,0.5-41.7-12.2-53.6-32.6
		C236.3,565.8,232.9,539.2,232.9,511.9L232.9,511.9z"/>
</g>
</svg>
